<svg width="45" height="50" viewBox="0 0 45 50" fill="none" xmlns="http://www.w3.org/2000/svg">
<g clip-path="url(#clip0)">
<rect width="45" height="50" fill="white"/>
<rect width="45.2381" height="50" fill="white"/>
<circle cx="22" cy="25" r="9.5" fill="#AAA9A9"/>
<path fill-rule="evenodd" clip-rule="evenodd" d="M22 19.7389C18.9579 19.7389 16.8576 21.4159 15.4331 22.5533C15.2108 22.7308 15.005 22.8951 14.8147 23.0379L13.8923 23.7297L14.7076 24.545L14.9728 24.8103C15.4217 25.7317 16.2305 27.0045 17.3277 28.0851C18.4846 29.2245 20.0789 30.2611 22 30.2611C23.921 30.2611 25.5153 29.2245 26.6722 28.0851C27.7694 27.0045 28.5782 25.7317 29.0271 24.8103L29.2924 24.545L30.1077 23.7297L29.1852 23.0379C28.9949 22.8951 28.7891 22.7308 28.5668 22.5533C27.1423 21.4159 25.042 19.7389 22 19.7389ZM18.7311 26.6602C17.8528 25.7951 17.1862 24.7622 16.8128 24.0191C18.2393 22.8971 19.7417 21.7389 22 21.7389C24.2583 21.7389 25.7606 22.8971 27.1872 24.0191C26.8138 24.7622 26.1472 25.7951 25.2688 26.6602C24.2951 27.6191 23.1779 28.2611 22 28.2611C20.822 28.2611 19.7048 27.6191 18.7311 26.6602ZM22 27.7116C23.4975 27.7116 24.7116 26.4976 24.7116 25C24.7116 23.5024 23.4975 22.2884 22 22.2884C20.5024 22.2884 19.2884 23.5024 19.2884 25C19.2884 26.4976 20.5024 27.7116 22 27.7116Z" fill="white"/>
</g>
<defs>
<clipPath id="clip0">
<rect width="45" height="50" fill="white"/>
</clipPath>
</defs>
</svg>
