<svg width="45" height="50" viewBox="0 0 45 50" fill="none" xmlns="http://www.w3.org/2000/svg">
<g clip-path="url(#clip0)">
<rect width="45" height="50" fill="white"/>
<rect width="45.2381" height="50" fill="white"/>
<circle cx="22.4252" cy="24.9252" r="9.5" fill="#AAA9A9"/>
<path fill-rule="evenodd" clip-rule="evenodd" d="M15.4219 24.1697C15.8348 24.0389 16.281 24.2503 16.4198 24.6419L16.4212 24.6458C16.4229 24.6505 16.4262 24.6593 16.4311 24.6718C16.4408 24.6968 16.4569 24.7368 16.4797 24.7896C16.5254 24.8953 16.5979 25.0516 16.7006 25.2415C16.9069 25.6228 17.2304 26.1311 17.6966 26.6372C18.6197 27.6395 20.0944 28.631 22.3819 28.631C24.6694 28.631 26.1441 27.6395 27.0672 26.6372C27.5334 26.1311 27.8569 25.6228 28.0632 25.2415C28.1659 25.0516 28.2384 24.8953 28.2841 24.7896C28.3069 24.7368 28.323 24.6968 28.3327 24.6718C28.3376 24.6593 28.3409 24.6505 28.3426 24.6458L28.3435 24.6434C28.3437 24.6429 28.3439 24.6423 28.3441 24.6418C28.4828 24.2503 28.929 24.0389 29.3419 24.1697C29.7555 24.3007 29.979 24.7254 29.8412 25.1183L29.0922 24.8812C29.8412 25.1183 29.841 25.1187 29.8409 25.1191L29.8406 25.1199L29.8399 25.1219L29.8381 25.1271L29.8325 25.1423C29.8279 25.1546 29.8217 25.1711 29.8138 25.1916C29.7979 25.2325 29.775 25.2892 29.7446 25.3594C29.6839 25.4998 29.593 25.6951 29.4675 25.9271C29.2174 26.3894 28.8255 27.0061 28.2555 27.6249C27.1063 28.8726 25.2259 30.131 22.3819 30.131C19.5379 30.131 17.6575 28.8726 16.5083 27.6249C15.9383 27.0061 15.5464 26.3894 15.2963 25.9271C15.1708 25.6951 15.0799 25.4998 15.0192 25.3594C14.9888 25.2892 14.9659 25.2325 14.95 25.1916C14.9421 25.1711 14.9358 25.1546 14.9313 25.1423L14.9257 25.1271L14.9239 25.1219L14.9232 25.1199L14.9229 25.1191C14.9227 25.1187 14.9226 25.1183 15.6716 24.8812L14.9226 25.1183C14.7847 24.7254 15.0083 24.3007 15.4219 24.1697Z" fill="white"/>
</g>
<defs>
<clipPath id="clip0">
<rect width="45" height="50" fill="white"/>
</clipPath>
</defs>
</svg>
