<svg width="45" height="50" viewBox="0 0 45 50" fill="none" xmlns="http://www.w3.org/2000/svg">
<g clip-path="url(#clip0)">
<rect width="45" height="50" fill="#CCCCCC"/>
<rect x="0.25" y="0.25" width="44.7381" height="49.5" fill="white" stroke="#CCCCCC" stroke-width="0.5"/>
<path d="M21.0888 28.2491C20.7201 27.9558 20.484 27.5053 20.484 27C20.484 26.1163 21.2061 25.4 22.0968 25.4C22.9876 25.4 23.7096 26.1163 23.7096 27C23.7096 27.5053 23.4736 27.9558 23.1048 28.2491V31H21.0888V28.2491Z" fill="#CCCCCC"/>
<path fill-rule="evenodd" clip-rule="evenodd" d="M14.8898 21.4C15.0261 20.2818 15.4548 18.9086 16.376 17.7139C17.5618 16.1763 19.5155 15 22.5 15C25.4846 15 27.4383 16.1763 28.624 17.7139C29.5453 18.9086 29.974 20.2818 30.1103 21.4H32.58V35H12.42V21.4H14.8898ZM16.5174 21.4C16.6481 20.5593 16.9885 19.5531 17.657 18.6861C18.5276 17.5571 20.0011 16.6 22.5 16.6C24.999 16.6 26.4725 17.5571 27.3431 18.6861C28.0116 19.5531 28.352 20.5593 28.4827 21.4H16.5174ZM14.0328 23V33.4H30.9672V23H14.0328Z" fill="#CCCCCC"/>
</g>
<defs>
<clipPath id="clip0">
<rect width="45" height="50" fill="white"/>
</clipPath>
</defs>
</svg>
